<?xml version="1.0" encoding="UTF-8" standalone="no"?>
<!-- Created with Inkscape (http://www.inkscape.org/) -->

<svg
   xmlns:dc="http://purl.org/dc/elements/1.1/"
   xmlns:cc="http://creativecommons.org/ns#"
   xmlns:rdf="http://www.w3.org/1999/02/22-rdf-syntax-ns#"
   xmlns:svg="http://www.w3.org/2000/svg"
   xmlns="http://www.w3.org/2000/svg"
   xmlns:sodipodi="http://sodipodi.sourceforge.net/DTD/sodipodi-0.dtd"
   xmlns:inkscape="http://www.inkscape.org/namespaces/inkscape"
   width="610"
   height="410"
   viewBox="0 0 161.39583 108.47916"
   version="1.1"
   id="svg8"
   inkscape:version="0.92.3 (2405546, 2018-03-11)"
   sodipodi:docname="rinQuest_Title.svg">
  <defs
     id="defs2" />
  <sodipodi:namedview
     id="base"
     pagecolor="#ffffff"
     bordercolor="#666666"
     borderopacity="1.0"
     inkscape:pageopacity="0.0"
     inkscape:pageshadow="2"
     inkscape:zoom="0.98994949"
     inkscape:cx="224.57624"
     inkscape:cy="298.98043"
     inkscape:document-units="mm"
     inkscape:current-layer="text1009"
     showgrid="false"
     units="px"
     inkscape:window-width="1920"
     inkscape:window-height="1027"
     inkscape:window-x="1912"
     inkscape:window-y="-8"
     inkscape:window-maximized="1" />
  <metadata
     id="metadata5">
    <rdf:RDF>
      <cc:Work
         rdf:about="">
        <dc:format>image/svg+xml</dc:format>
        <dc:type
           rdf:resource="http://purl.org/dc/dcmitype/StillImage" />
        <dc:title></dc:title>
      </cc:Work>
    </rdf:RDF>
  </metadata>
  <g
     inkscape:label="Ebene 1"
     inkscape:groupmode="layer"
     id="layer1"
     transform="translate(0,-188.52081)">
    <g
       aria-label="Nene Quest"
       style="font-style:normal;font-variant:normal;font-weight:bold;font-stretch:normal;font-size:35.97980499px;line-height:1.25;font-family:Calibri;-inkscape-font-specification:'Calibri, Bold';font-variant-ligatures:normal;font-variant-caps:normal;font-variant-numeric:normal;font-feature-settings:normal;text-align:center;letter-spacing:0px;word-spacing:0px;writing-mode:lr-tb;text-anchor:middle;fill:#000000;fill-opacity:1;stroke:none;stroke-width:0.89950806"
       id="text12">
      <g
         aria-label="Sakura Quest"
         style="font-style:normal;font-variant:normal;font-weight:bold;font-stretch:normal;font-size:27.69064331px;line-height:0.75;font-family:Calibri;-inkscape-font-specification:'Calibri, Bold';font-variant-ligatures:normal;font-variant-caps:normal;font-variant-numeric:normal;font-feature-settings:normal;text-align:center;letter-spacing:0px;word-spacing:0px;writing-mode:lr-tb;text-anchor:middle;opacity:0.93999999;fill:#000000;fill-opacity:1;stroke:none;stroke-width:0.62269896"
         id="text54">
        <path
           style="fill:#ad023f;fill-opacity:1;stroke:none;stroke-width:0.26458332px;stroke-linecap:butt;stroke-linejoin:miter;stroke-opacity:1"
           d="m -168.80458,249.34242 1.1693,0.65147 c 0,0 -1.0162,-0.8412 -1.58003,-1.17858 -0.40404,-0.24176 -1.27948,-0.59851 -1.27948,-0.59851 l 0.98559,0.85024 z"
           id="path962"
           inkscape:connector-curvature="0"
           sodipodi:nodetypes="ccaccc" />
        <path
           style="fill:#ad023f;fill-opacity:1;stroke:none;stroke-width:0.26458332px;stroke-linecap:butt;stroke-linejoin:miter;stroke-opacity:1"
           d="m -124.80533,255.0219 1.27788,0.0668 0.37585,1.04402 z"
           id="path960"
           inkscape:connector-curvature="0" />
        <path
           style="fill:#ad023f;fill-opacity:1;stroke:none;stroke-width:0.26458332px;stroke-linecap:butt;stroke-linejoin:miter;stroke-opacity:1"
           d="m -116.81279,262.48566 0.21764,1.38954 1.36981,-0.3312 z"
           id="path958"
           inkscape:connector-curvature="0" />
        <path
           style="font-style:normal;font-variant:normal;font-weight:bold;font-stretch:normal;font-size:27.69064331px;line-height:0.75;font-family:Calibri;-inkscape-font-specification:'Calibri, Bold';font-variant-ligatures:normal;font-variant-caps:normal;font-variant-numeric:normal;font-feature-settings:normal;text-align:center;letter-spacing:0px;word-spacing:0px;writing-mode:lr-tb;text-anchor:middle;opacity:0.93999999;fill:#ad023f;fill-opacity:1;stroke:none;stroke-width:0.26458332px;stroke-linecap:butt;stroke-linejoin:miter;stroke-opacity:1"
           d="m -119.99562,249.29229 0.28348,1.11031 1.46465,0.0473 z"
           id="path941-0"
           inkscape:connector-curvature="0"
           sodipodi:nodetypes="cccc" />
        <path
           style="fill:#ad023f;fill-opacity:1;stroke:none;stroke-width:0.26458332px;stroke-linecap:butt;stroke-linejoin:miter;stroke-opacity:1"
           d="m -117.00725,252.37516 0.28348,1.11031 1.44103,-0.0118 z"
           id="path941"
           inkscape:connector-curvature="0"
           sodipodi:nodetypes="cccc" />
        <path
           style="fill:#ad023f;fill-opacity:1;stroke:none;stroke-width:0.25843611px;stroke-linecap:butt;stroke-linejoin:miter;stroke-opacity:1"
           d="m -133.43445,265.27994 0.28902,0.52445 -1.68251,-1.16914 z"
           id="path939"
           inkscape:connector-curvature="0"
           sodipodi:nodetypes="cccc" />
        <path
           style="fill:#ad023f;fill-opacity:1;stroke:none;stroke-width:0.26458332px;stroke-linecap:butt;stroke-linejoin:miter;stroke-opacity:1"
           d="m -126.6427,253.62934 1.27643,0.26095 -1.58752,-1.05832 z"
           id="path937"
           inkscape:connector-curvature="0" />
        <path
           style="fill:#ad023f;fill-opacity:1;stroke:none;stroke-width:0.26458332px;stroke-linecap:butt;stroke-linejoin:miter;stroke-opacity:1"
           d="m -138.04044,262.29652 0.1556,1.39493 1.43179,-0.33659 z"
           id="path935"
           inkscape:connector-curvature="0" />
        <path
           style="font-style:normal;font-variant:normal;font-weight:bold;font-stretch:normal;font-size:27.69064331px;line-height:0.75;font-family:Calibri;-inkscape-font-specification:'Calibri, Bold';font-variant-ligatures:normal;font-variant-caps:normal;font-variant-numeric:normal;font-feature-settings:normal;text-align:center;letter-spacing:0px;word-spacing:0px;writing-mode:lr-tb;text-anchor:middle;opacity:0.93999999;fill:#ad023f;fill-opacity:1;stroke:none;stroke-width:0.26458332px;stroke-linecap:butt;stroke-linejoin:miter;stroke-opacity:1"
           d="m -151.89955,252.57464 -0.0346,0.74724 1.62212,0.31111 z"
           id="path918-2"
           inkscape:connector-curvature="0"
           sodipodi:nodetypes="cccc" />
        <path
           style="fill:#ad023f;fill-opacity:1;stroke:none;stroke-width:0.26458332px;stroke-linecap:butt;stroke-linejoin:miter;stroke-opacity:1"
           d="m -160.01224,252.57464 -0.0346,0.74724 1.62213,0.31111 z"
           id="path918"
           inkscape:connector-curvature="0"
           sodipodi:nodetypes="cccc" />
        <path
           style="fill:#ad023f;fill-opacity:1;stroke:none;stroke-width:0.26458332px;stroke-linecap:butt;stroke-linejoin:miter;stroke-opacity:1"
           d="m -164.95423,265.51223 0.24221,0.50113 1.30294,0.55124 z"
           id="path916"
           inkscape:connector-curvature="0"
           sodipodi:nodetypes="cccc" />
        <g
           aria-label="Yun Quest"
           style="font-style:normal;font-variant:normal;font-weight:bold;font-stretch:normal;font-size:31.33415031px;line-height:0.85000002;font-family:Calibri;-inkscape-font-specification:'Calibri, Bold';font-variant-ligatures:normal;font-variant-caps:normal;font-variant-numeric:normal;font-feature-settings:normal;text-align:center;letter-spacing:0px;word-spacing:0px;writing-mode:lr-tb;text-anchor:middle;fill:#c01653;fill-opacity:1;stroke:none;stroke-width:0.48779356"
           id="text970">
          <g
             aria-label="Rin  Quest"
             style="font-style:normal;font-variant:normal;font-weight:bold;font-stretch:normal;font-size:31.33415031px;line-height:0.80000001;font-family:Calibri;-inkscape-font-specification:'Calibri, Bold';font-variant-ligatures:normal;font-variant-caps:normal;font-variant-numeric:normal;font-feature-settings:normal;text-align:center;letter-spacing:0px;word-spacing:0px;writing-mode:lr-tb;text-anchor:middle;fill:#c01653;fill-opacity:1;stroke:none;stroke-width:0.38211492"
             id="text1009">
            <g
               id="g897"
               transform="matrix(2.0727899,0,0,2.0727899,-57.67192,-176.33328)">
              <path
                 sodipodi:nodetypes="cccc"
                 inkscape:connector-curvature="0"
                 id="path1261"
                 d="m 98.321777,222.23133 0.496953,0.86445 -1.591088,-1.59527 z"
                 style="fill:#ae0340;fill-opacity:1;stroke:none;stroke-width:0.26458332px;stroke-linecap:butt;stroke-linejoin:miter;stroke-opacity:1" />
              <path
                 sodipodi:nodetypes="cccc"
                 inkscape:connector-curvature="0"
                 id="path1259"
                 d="m 103.53353,221.08708 1.42794,-0.28365 -1.63135,-1.61886 z"
                 style="fill:#ae0340;fill-opacity:1;stroke:none;stroke-width:0.26458332px;stroke-linecap:butt;stroke-linejoin:miter;stroke-opacity:1" />
              <path
                 sodipodi:nodetypes="cccc"
                 inkscape:connector-curvature="0"
                 id="path1218-6-8"
                 d="m 95.823267,212.28782 0.029,-1.52517 -1.6081,-0.0471 z"
                 style="font-style:normal;font-variant:normal;font-weight:bold;font-stretch:normal;font-size:31.33415031px;line-height:0.80000001;font-family:Calibri;-inkscape-font-specification:'Calibri, Bold';font-variant-ligatures:normal;font-variant-caps:normal;font-variant-numeric:normal;font-feature-settings:normal;text-align:center;letter-spacing:0px;word-spacing:0px;writing-mode:lr-tb;text-anchor:middle;opacity:1;fill:#ad023f;fill-opacity:1;stroke:none;stroke-width:0.26458332px;stroke-linecap:butt;stroke-linejoin:miter;stroke-opacity:1" />
              <path
                 sodipodi:nodetypes="cccc"
                 inkscape:connector-curvature="0"
                 id="path1218-6"
                 d="m 99.899844,204.37644 -0.02903,1.52517 1.608096,0.0471 z"
                 style="font-style:normal;font-variant:normal;font-weight:bold;font-stretch:normal;font-size:31.33415031px;line-height:0.80000001;font-family:Calibri;-inkscape-font-specification:'Calibri, Bold';font-variant-ligatures:normal;font-variant-caps:normal;font-variant-numeric:normal;font-feature-settings:normal;text-align:center;letter-spacing:0px;word-spacing:0px;writing-mode:lr-tb;text-anchor:middle;opacity:1;fill:#ad023f;fill-opacity:1;stroke:none;stroke-width:0.26458332px;stroke-linecap:butt;stroke-linejoin:miter;stroke-opacity:1" />
              <path
                 sodipodi:nodetypes="cccc"
                 inkscape:connector-curvature="0"
                 id="path1218"
                 d="m 103.33713,207.87943 0.19539,1.49564 1.32757,0.0294 z"
                 style="opacity:1;fill:#ad023f;fill-opacity:1;stroke:none;stroke-width:0.26458332px;stroke-linecap:butt;stroke-linejoin:miter;stroke-opacity:1" />
              <path
                 sodipodi:nodetypes="ccscc"
                 inkscape:connector-curvature="0"
                 id="path1201-0"
                 d="m 84.864511,215.40141 -0.7028,-0.36026 c 0,0 0.34831,0.39059 0.51972,0.57287 0.19678,0.20925 0.63193,0.6024 0.63193,0.6024 z"
                 style="font-style:normal;font-variant:normal;font-weight:bold;font-stretch:normal;font-size:31.33415031px;line-height:0.80000001;font-family:Calibri;-inkscape-font-specification:'Calibri, Bold';font-variant-ligatures:normal;font-variant-caps:normal;font-variant-numeric:normal;font-feature-settings:normal;text-align:center;letter-spacing:0px;word-spacing:0px;writing-mode:lr-tb;text-anchor:middle;opacity:1;fill:#ad023f;fill-opacity:1;stroke:none;stroke-width:0.26458332px;stroke-linecap:butt;stroke-linejoin:miter;stroke-opacity:1" />
              <path
                 sodipodi:nodetypes="ccscc"
                 inkscape:connector-curvature="0"
                 id="path1201"
                 d="m 92.421084,216.08945 0.7028,0.36026 c 0,0 -0.348308,-0.39059 -0.51972,-0.57287 -0.196778,-0.20925 -0.631927,-0.6024 -0.631927,-0.6024 z"
                 style="opacity:1;fill:#ad023f;fill-opacity:1;stroke:none;stroke-width:0.26458332px;stroke-linecap:butt;stroke-linejoin:miter;stroke-opacity:1" />
              <path
                 sodipodi:nodetypes="cccc"
                 inkscape:connector-curvature="0"
                 id="path1184-6"
                 d="m 93.442878,209.84821 -1.47664,-0.48104 -0.0785,-1.07904 z"
                 style="font-style:normal;font-variant:normal;font-weight:bold;font-stretch:normal;font-size:31.33415031px;line-height:0.80000001;font-family:Calibri;-inkscape-font-specification:'Calibri, Bold';font-variant-ligatures:normal;font-variant-caps:normal;font-variant-numeric:normal;font-feature-settings:normal;text-align:center;letter-spacing:0px;word-spacing:0px;writing-mode:lr-tb;text-anchor:middle;opacity:1;fill:#ad023f;fill-opacity:1;stroke:none;stroke-width:0.26458332px;stroke-linecap:butt;stroke-linejoin:miter;stroke-opacity:1" />
              <path
                 sodipodi:nodetypes="cccc"
                 inkscape:connector-curvature="0"
                 id="path1184"
                 d="m 82.980529,221.68347 1.47664,0.48104 0.07846,1.07904 z"
                 style="opacity:1;fill:#ad023f;fill-opacity:1;stroke:none;stroke-width:0.26458332px;stroke-linecap:butt;stroke-linejoin:miter;stroke-opacity:1" />
              <path
                 sodipodi:nodetypes="cccc"
                 inkscape:connector-curvature="0"
                 id="path1182"
                 d="m 56.818754,188.1198 3.395867,3.19416 -2.384177,-3.59381 z"
                 style="opacity:1;fill:#ad023f;fill-opacity:1;stroke:none;stroke-width:0.26458332px;stroke-linecap:butt;stroke-linejoin:miter;stroke-opacity:1" />
              <path
                 sodipodi:nodetypes="ccacc"
                 inkscape:connector-curvature="0"
                 id="path1180"
                 d="m 84.206008,184.50482 1.417409,1.08668 c 0,0 -0.771671,-0.93563 -1.204798,-1.35836 -0.331912,-0.32394 -1.063059,-0.89769 -1.063059,-0.89769 z"
                 style="opacity:1;fill:#ad023f;fill-opacity:1;stroke:none;stroke-width:0.26458332px;stroke-linecap:butt;stroke-linejoin:miter;stroke-opacity:1" />
              <path
                 sodipodi:nodetypes="cccc"
                 inkscape:connector-curvature="0"
                 id="path1115-8-1"
                 d="m 76.720446,184.31344 -1.520174,-0.0105 -0.06728,-1.57704 z"
                 style="font-style:normal;font-variant:normal;font-weight:bold;font-stretch:normal;font-size:31.33415031px;line-height:0.80000001;font-family:Calibri;-inkscape-font-specification:'Calibri, Bold';font-variant-ligatures:normal;font-variant-caps:normal;font-variant-numeric:normal;font-feature-settings:normal;text-align:center;letter-spacing:0px;word-spacing:0px;writing-mode:lr-tb;text-anchor:middle;opacity:1;fill:#ad023f;fill-opacity:1;stroke:none;stroke-width:0.26458332px;stroke-linecap:butt;stroke-linejoin:miter;stroke-opacity:1" />
              <path
                 inkscape:connector-curvature="0"
                 id="path1115-8-7"
                 d="m 69.665791,178.59156 -1.49655,-0.2231 -0.091,-1.36443 z"
                 style="font-style:normal;font-variant:normal;font-weight:bold;font-stretch:normal;font-size:31.33415031px;line-height:0.80000001;font-family:Calibri;-inkscape-font-specification:'Calibri, Bold';font-variant-ligatures:normal;font-variant-caps:normal;font-variant-numeric:normal;font-feature-settings:normal;text-align:center;letter-spacing:0px;word-spacing:0px;writing-mode:lr-tb;text-anchor:middle;opacity:1;fill:#ad023f;fill-opacity:1;stroke:none;stroke-width:0.26458332px;stroke-linecap:butt;stroke-linejoin:miter;stroke-opacity:1" />
              <path
                 inkscape:connector-curvature="0"
                 id="path1115-8-0"
                 d="m 64.652828,180.24785 1.49655,0.2231 0.09095,1.36443 z"
                 style="font-style:normal;font-variant:normal;font-weight:bold;font-stretch:normal;font-size:31.33415031px;line-height:0.80000001;font-family:Calibri;-inkscape-font-specification:'Calibri, Bold';font-variant-ligatures:normal;font-variant-caps:normal;font-variant-numeric:normal;font-feature-settings:normal;text-align:center;letter-spacing:0px;word-spacing:0px;writing-mode:lr-tb;text-anchor:middle;opacity:1;fill:#ad023f;fill-opacity:1;stroke:none;stroke-width:0.26458332px;stroke-linecap:butt;stroke-linejoin:miter;stroke-opacity:1" />
              <path
                 inkscape:connector-curvature="0"
                 id="path1115-8-4"
                 d="m 81.3904,197.08565 1.49655,0.2231 0.09095,1.36443 z"
                 style="font-style:normal;font-variant:normal;font-weight:bold;font-stretch:normal;font-size:31.33415031px;line-height:0.80000001;font-family:Calibri;-inkscape-font-specification:'Calibri, Bold';font-variant-ligatures:normal;font-variant-caps:normal;font-variant-numeric:normal;font-feature-settings:normal;text-align:center;letter-spacing:0px;word-spacing:0px;writing-mode:lr-tb;text-anchor:middle;opacity:1;fill:#ad023f;fill-opacity:1;stroke:none;stroke-width:0.26458332px;stroke-linecap:butt;stroke-linejoin:miter;stroke-opacity:1" />
              <path
                 inkscape:connector-curvature="0"
                 id="path1115-8"
                 d="m 72.195086,197.08565 1.49655,0.2231 0.09095,1.36443 z"
                 style="font-style:normal;font-variant:normal;font-weight:bold;font-stretch:normal;font-size:31.33415031px;line-height:0.80000001;font-family:Calibri;-inkscape-font-specification:'Calibri, Bold';font-variant-ligatures:normal;font-variant-caps:normal;font-variant-numeric:normal;font-feature-settings:normal;text-align:center;letter-spacing:0px;word-spacing:0px;writing-mode:lr-tb;text-anchor:middle;opacity:1;fill:#ad023f;fill-opacity:1;stroke:none;stroke-width:0.26458332px;stroke-linecap:butt;stroke-linejoin:miter;stroke-opacity:1" />
              <path
                 inkscape:connector-curvature="0"
                 id="path1115"
                 d="m 64.483918,197.08566 1.49655,0.2231 0.09095,1.36443 z"
                 style="opacity:1;fill:#ad023f;fill-opacity:1;stroke:none;stroke-width:0.26458332px;stroke-linecap:butt;stroke-linejoin:miter;stroke-opacity:1" />
              <path
                 sodipodi:nodetypes="ccacc"
                 inkscape:connector-curvature="0"
                 id="path1113"
                 d="m 59.826543,180.27621 1.068011,0.65591 c 0,0 -0.860655,-1.06026 -1.367502,-1.51348 -0.298709,-0.2671 -0.976179,-0.70158 -0.976179,-0.70158 z"
                 style="opacity:1;fill:#ad023f;fill-opacity:1;stroke:none;stroke-width:0.26458332px;stroke-linecap:butt;stroke-linejoin:miter;stroke-opacity:1" />
              <path
                 sodipodi:nodetypes="cccc"
                 inkscape:connector-curvature="0"
                 id="path1096"
                 d="m 48.664434,197.356 -0.02363,1.24023 -1.547341,-1.55914 z"
                 style="opacity:1;fill:#ad023f;fill-opacity:1;stroke:none;stroke-width:0.26458332px;stroke-linecap:butt;stroke-linejoin:miter;stroke-opacity:1" />
              <path
                 sodipodi:nodetypes="ccacc"
                 inkscape:connector-curvature="0"
                 id="path1094"
                 d="m 78.978145,210.02045 1.102487,0.61806 c 0,0 -0.535105,-0.61561 -0.828473,-0.89815 -0.297642,-0.28665 -0.942187,-0.80569 -0.942187,-0.80569 z"
                 style="opacity:1;fill:#ad023f;fill-opacity:1;stroke:none;stroke-width:0.26458332px;stroke-linecap:butt;stroke-linejoin:miter;stroke-opacity:1" />
              <path
                 sodipodi:nodetypes="ccacc"
                 inkscape:connector-curvature="0"
                 id="path1090"
                 d="m 69.540191,221.61327 1.202711,1.31964 c 0,0 -1.022676,-0.84083 -1.484752,-1.31306 -0.308122,-0.31489 -0.853856,-1.00885 -0.853856,-1.00885 z"
                 style="opacity:1;fill:#ad023f;fill-opacity:1;stroke:none;stroke-width:0.26458332px;stroke-linecap:butt;stroke-linejoin:miter;stroke-opacity:1" />
              <path
                 sodipodi:nodetypes="cccc"
                 inkscape:connector-curvature="0"
                 id="path1088"
                 d="m 79.552177,220.88502 1.344692,-0.32687 -1.587513,-1.58752 z"
                 style="opacity:1;fill:#ad023f;fill-opacity:1;stroke:none;stroke-width:0.26458332px;stroke-linecap:butt;stroke-linejoin:miter;stroke-opacity:1" />
              <path
                 sodipodi:nodetypes="csscc"
                 inkscape:connector-curvature="0"
                 id="path1086"
                 d="m 31.955412,221.19566 c 0,0 1.033063,0.37559 1.029867,0.89267 -0.0016,0.26648 -0.171433,0.16756 -0.724225,-0.37141 -0.519879,-0.50689 -1.424832,-1.44835 -1.424832,-1.44835 z"
                 style="opacity:1;fill:#ad023f;fill-opacity:1;stroke:none;stroke-width:0.26458332px;stroke-linecap:butt;stroke-linejoin:miter;stroke-opacity:1" />
              <path
                 sodipodi:nodetypes="cccc"
                 inkscape:connector-curvature="0"
                 id="path1084"
                 d="m 53.105655,222.0662 0.785481,1.11621 -1.724515,-1.70679 z"
                 style="opacity:1;fill:#ad023f;fill-opacity:1;stroke:none;stroke-width:0.26458332px;stroke-linecap:butt;stroke-linejoin:miter;stroke-opacity:1" />
              <path
                 sodipodi:nodetypes="cccc"
                 inkscape:connector-curvature="0"
                 id="path1073"
                 d="m 62.056642,222.41507 0.100229,1.40317 -1.687138,-1.77066 z"
                 style="opacity:1;fill:#ad023f;fill-opacity:1;stroke:none;stroke-width:0.26458332px;stroke-linecap:butt;stroke-linejoin:miter;stroke-opacity:1" />
              <path
                 sodipodi:nodetypes="csccc"
                 inkscape:connector-curvature="0"
                 id="path1071"
                 d="m 43.231026,203.39182 c 0,0 1.167981,0.78185 1.824207,1.27344 0.663185,0.4968 1.765973,1.90822 1.765973,1.90822 l -1.782982,-0.51221 z"
                 style="opacity:1;fill:#ad023f;fill-opacity:1;stroke:none;stroke-width:0.26458332px;stroke-linecap:butt;stroke-linejoin:miter;stroke-opacity:1" />
              <path
                 inkscape:connector-curvature="0"
                 id="path1052"
                 d="m 54.447323,207.96975 0.06984,1.25707 1.517666,0.33048 z"
                 style="opacity:1;fill:#ad023f;fill-opacity:1;stroke:none;stroke-width:0.26458332px;stroke-linecap:butt;stroke-linejoin:miter;stroke-opacity:1" />
              <path
                 sodipodi:nodetypes="cccc"
                 inkscape:connector-curvature="0"
                 id="path1050"
                 d="m 48.843505,222.61553 0.283976,1.10249 1.302938,0.48442 z"
                 style="opacity:1;fill:#ad023f;fill-opacity:1;stroke:none;stroke-width:0.26458332px;stroke-linecap:butt;stroke-linejoin:miter;stroke-opacity:1" />
              <path
                 inkscape:connector-curvature="0"
                 id="path1017-8"
                 d="m 67.922469,178.14058 c -0.866992,0 -1.45837,0.15341 -1.774568,0.4594 -0.305996,0.2958 -0.458886,0.83091 -0.458886,1.60611 0,0.74459 0.147585,1.26004 0.443384,1.54564 0.305998,0.28559 0.89259,0.4284 1.759582,0.4284 0.856792,0 1.443384,-0.14811 1.759583,-0.4439 0.316198,-0.2958 0.47439,-0.83143 0.47439,-1.60662 0,-0.7446 -0.15289,-1.25953 -0.458889,-1.54513 -0.305995,-0.29579 -0.887801,-0.4439 -1.744596,-0.4439 z m -18.145662,0.97927 c -0.336598,0 -0.622197,0.10193 -0.856795,0.30592 -0.224398,0.1938 -0.336412,0.51548 -0.336412,0.96428 v 17.9772 c 0,0.102 0.03078,0.19384 0.09198,0.27544 0.0612,0.0816 0.167913,0.14795 0.320911,0.19895 0.153,0.051 0.357367,0.0919 0.612367,0.12247 0.265197,0.0306 0.591672,0.0455 0.979268,0.0455 0.397796,0 0.723754,-0.0149 0.978752,-0.0455 0.254997,-0.0306 0.459367,-0.0715 0.612365,-0.12247 0.152998,-0.051 0.25971,-0.11735 0.32091,-0.19895 0.0714,-0.0816 0.107487,-0.17344 0.107487,-0.27544 v -7.54269 h 1.254189 c 0.428395,0 0.805831,0.0658 1.132229,0.19844 0.326398,0.1326 0.611997,0.33166 0.856795,0.59686 0.255,0.25499 0.484849,0.57616 0.688848,0.96377 0.203999,0.38759 0.413152,0.83139 0.62735,1.33118 l 1.774569,4.42195 c 0.0408,0.1224 0.09176,0.22911 0.152963,0.32091 0.0612,0.0816 0.163127,0.15326 0.305925,0.21446 0.152998,0.051 0.357367,0.0866 0.612365,0.10697 0.254997,0.0204 0.596347,0.0305 1.024744,0.0305 0.509995,0 0.912913,-0.0101 1.208712,-0.0305 0.295799,-0.0204 0.520346,-0.056 0.673344,-0.10697 0.152998,-0.051 0.249621,-0.11205 0.290422,-0.18345 0.0408,-0.0816 0.0615,-0.17874 0.0615,-0.29094 0,-0.102 -0.02548,-0.2395 -0.07648,-0.41289 -0.051,-0.1836 -0.152926,-0.4692 -0.305924,-0.8568 l -1.668116,-3.90157 c -0.1938,-0.46919 -0.392348,-0.8875 -0.596347,-1.2547 -0.203999,-0.3774 -0.423244,-0.70866 -0.657842,-0.99426 -0.224396,-0.29579 -0.469122,-0.54582 -0.734322,-0.74982 -0.254997,-0.204 -0.530508,-0.37759 -0.826304,-0.52038 0.611994,-0.1938 1.157711,-0.44861 1.637109,-0.76482 0.479396,-0.3162 0.882314,-0.68833 1.208712,-1.11672 0.326396,-0.4284 0.571122,-0.91307 0.734322,-1.45366 0.173398,-0.55079 0.259932,-1.15756 0.259932,-1.82056 0,-0.7854 -0.117319,-1.47922 -0.351917,-2.08101 -0.234598,-0.61199 -0.576463,-1.13702 -1.02526,-1.57562 -0.438597,-0.44879 -0.979012,-0.81135 -1.621608,-1.08675 -0.632394,-0.27539 -1.346393,-0.46916 -2.141987,-0.58136 -0.275397,-0.0306 -0.581176,-0.0561 -0.917773,-0.0765 -0.336598,-0.0204 -0.764998,-0.0305 -1.285193,-0.0305 z m 2.830835,3.07526 h 1.805059 c 0.458997,0 0.816253,0.0154 1.071251,0.046 0.265199,0.0306 0.499837,0.0715 0.703834,0.12248 0.673195,0.1836 1.157343,0.49947 1.453141,0.94826 0.295797,0.4488 0.4439,0.99982 0.4439,1.65261 0,0.4284 -0.07114,0.81593 -0.21394,1.16272 -0.142798,0.3468 -0.357256,0.6478 -0.642855,0.90279 -0.285597,0.2448 -0.64234,0.43856 -1.070734,0.58136 -0.428398,0.1326 -0.928455,0.19895 -1.499651,0.19895 h -2.050005 z m 29.115536,1.6831 c -0.846592,0 -1.66252,0.20386 -2.447912,0.61185 -0.775194,0.408 -1.540158,1.02007 -2.29495,1.83607 v -1.57562 c 0,-0.102 -0.02548,-0.18905 -0.07648,-0.26045 -0.051,-0.0816 -0.138052,-0.14795 -0.26045,-0.19895 -0.1122,-0.051 -0.275178,-0.0866 -0.489376,-0.10697 -0.214199,-0.0306 -0.484405,-0.046 -0.810803,-0.046 -0.316198,0 -0.581618,0.0154 -0.795816,0.046 -0.203999,0.0204 -0.37228,0.056 -0.504881,0.10697 -0.132596,0.051 -0.224435,0.11736 -0.275434,0.19895 -0.051,0.0714 -0.07648,0.15845 -0.07648,0.26045 v 13.64723 c 3e-6,0.102 0.03078,0.19384 0.09199,0.27544 0.0612,0.0714 0.163126,0.13245 0.305925,0.18345 0.152998,0.051 0.352065,0.0871 0.596863,0.10748 0.244797,0.0306 0.555879,0.0455 0.933275,0.0455 0.377399,0 0.68848,-0.0149 0.933278,-0.0455 0.244798,-0.0204 0.43856,-0.0565 0.581358,-0.10748 0.152998,-0.051 0.260229,-0.11205 0.321429,-0.18345 0.0612,-0.0816 0.09147,-0.17344 0.09147,-0.27544 v -9.07283 c 0.540597,-0.6834 1.060834,-1.20364 1.560629,-1.56063 0.499795,-0.357 0.99455,-0.53537 1.484146,-0.53537 0.387598,0 0.724162,0.0764 1.009758,0.22945 0.295799,0.1428 0.535739,0.35195 0.719336,0.62735 0.1836,0.26519 0.321096,0.58636 0.412896,0.96377 0.101999,0.37739 0.152961,0.89762 0.152961,1.56062 v 7.78764 c 0,0.102 0.03078,0.19384 0.09199,0.27544 0.0612,0.0714 0.163123,0.13245 0.305924,0.18345 0.142798,0.051 0.336561,0.0871 0.581358,0.10748 0.255001,0.0306 0.571384,0.0455 0.94878,0.0455 0.367197,0 0.672976,-0.0149 0.917774,-0.0455 0.254997,-0.0204 0.454065,-0.0565 0.596863,-0.10748 0.142798,-0.051 0.244723,-0.11205 0.305924,-0.18345 0.0612,-0.0816 0.09147,-0.17344 0.09147,-0.27544 v -8.42998 c 0,-0.98939 -0.08653,-1.8361 -0.259932,-2.53989 -0.173398,-0.7038 -0.458999,-1.31587 -0.856795,-1.83607 -0.387596,-0.53039 -0.902531,-0.94871 -1.545124,-1.2547 -0.632397,-0.306 -1.412751,-0.45889 -2.340944,-0.45889 z m -13.815695,0.25994 c -0.377396,0 -0.688477,0.0154 -0.933275,0.046 -0.244798,0.0306 -0.443865,0.0768 -0.596863,0.13797 -0.142798,0.051 -0.244724,0.11685 -0.305925,0.19844 -0.0612,0.0714 -0.09199,0.15845 -0.09199,0.26045 v 13.61674 c 0,0.102 0.03079,0.19384 0.09199,0.27544 0.0612,0.0714 0.163127,0.13245 0.305925,0.18345 0.152998,0.051 0.352065,0.0871 0.596863,0.10748 0.244798,0.0306 0.555879,0.0455 0.933275,0.0455 0.377399,0 0.68848,-0.0149 0.933278,-0.0455 0.244798,-0.0204 0.43856,-0.0565 0.581359,-0.10748 0.152997,-0.051 0.260228,-0.11205 0.321429,-0.18345 0.0612,-0.0816 0.09147,-0.17344 0.09147,-0.27544 V 184.781 c 0,-0.102 -0.03027,-0.18905 -0.09147,-0.26045 -0.0612,-0.0816 -0.168429,-0.14743 -0.321429,-0.19844 -0.142799,-0.0612 -0.336561,-0.10737 -0.581359,-0.13797 -0.244798,-0.0306 -0.555879,-0.046 -0.933278,-0.046 z m -28.167271,19.69699 c -1.570789,0 -2.95261,0.23993 -4.146,0.71933 -1.18319,0.47939 -2.178005,1.16791 -2.983799,2.06551 -0.805791,0.88739 -1.412563,1.97353 -1.820561,3.25871 -0.407995,1.275 -0.611849,2.71308 -0.611849,4.31447 0,1.76459 0.18846,3.28973 0.565859,4.57491 0.387597,1.275 0.9641,2.32556 1.729092,3.15175 0.764995,0.82619 1.718416,1.43827 2.860807,1.83606 1.152592,0.3876 2.49936,0.58136 4.039548,0.58136 0.815993,0 1.555474,-0.0817 2.21847,-0.24494 0.673192,-0.153 1.244393,-0.33667 1.71359,-0.55087 0.560996,0.6426 1.167765,1.20901 1.82056,1.6986 0.662996,0.49979 1.310638,0.91759 1.943034,1.25419 0.632394,0.3468 1.218986,0.61222 1.759583,0.79582 0.550793,0.18359 0.994587,0.27543 1.331185,0.27543 0.0816,0 0.158043,-0.0202 0.229444,-0.061 0.0714,-0.0306 0.137752,-0.10756 0.198953,-0.22996 0.0612,-0.12239 0.10686,-0.29546 0.137459,-0.51986 0.0408,-0.2244 0.06098,-0.52009 0.06098,-0.88729 0,-0.459 -0.02548,-0.82155 -0.07648,-1.08675 -0.051,-0.255 -0.132231,-0.43816 -0.24443,-0.55036 -0.112199,-0.102 -0.270391,-0.18374 -0.47439,-0.24494 -0.193799,-0.0714 -0.459219,-0.17863 -0.795816,-0.32143 -0.326398,-0.1428 -0.734103,-0.35675 -1.223698,-0.64234 -0.489596,-0.2856 -1.050708,-0.70391 -1.683102,-1.2547 0.418195,-0.4182 0.790329,-0.90287 1.116727,-1.45366 0.326398,-0.55079 0.601908,-1.15756 0.826307,-1.82056 0.224398,-0.66299 0.392678,-1.3823 0.504878,-2.15749 0.122399,-0.7854 0.183451,-1.6215 0.183451,-2.50889 0,-1.71359 -0.203851,-3.19786 -0.611849,-4.45245 -0.397796,-1.25459 -0.989174,-2.28976 -1.774568,-3.10575 -0.775192,-0.82619 -1.733918,-1.43827 -2.876309,-1.83606 -1.132192,-0.3978 -2.438086,-0.59686 -3.917074,-0.59686 z m 59.929671,1.77508 c -0.367193,0 -0.678274,0.0154 -0.933274,0.046 -0.244798,0.0204 -0.443863,0.0613 -0.596861,0.12248 -0.142798,0.051 -0.244726,0.11683 -0.305927,0.19843 -0.051,0.0816 -0.07648,0.17344 -0.07648,0.27544 v 3.04477 h -1.621605 c -0.101999,0 -0.193836,0.0255 -0.275436,0.0765 -0.0714,0.051 -0.132451,0.13755 -0.183452,0.25994 -0.051,0.1122 -0.09187,0.27039 -0.122473,0.47439 -0.0204,0.204 -0.03049,0.45403 -0.03049,0.74982 0,0.561 0.05096,0.96391 0.152961,1.20871 0.102,0.2346 0.249587,0.35192 0.443384,0.35192 h 1.637109 v 6.99182 c 0,0.8364 0.08653,1.561 0.259932,2.173 0.1734,0.61199 0.444124,1.12162 0.811321,1.52962 0.367197,0.39779 0.831171,0.694 1.392158,0.8878 0.561,0.1938 1.22404,0.29042 1.98904,0.29042 0.2856,0 0.56589,-0.0154 0.84129,-0.046 0.28559,-0.0306 0.54572,-0.0763 0.78031,-0.13746 0.24481,-0.051 0.45396,-0.11205 0.62736,-0.18345 0.1836,-0.0816 0.32109,-0.16865 0.41289,-0.26045 0.0918,-0.102 0.16346,-0.27029 0.21446,-0.50488 0.0612,-0.2448 0.092,-0.59145 0.092,-1.04025 0,-0.2856 -0.0154,-0.52023 -0.046,-0.70383 -0.0204,-0.1836 -0.0459,-0.3264 -0.0765,-0.4284 -0.0306,-0.11219 -0.0768,-0.18386 -0.13798,-0.21445 -0.051,-0.0408 -0.10675,-0.061 -0.16795,-0.061 -0.0714,0 -0.15314,0.0202 -0.24494,0.061 -0.0816,0.0306 -0.18884,0.0715 -0.32143,0.12247 -0.1224,0.0408 -0.2652,0.0817 -0.4284,0.12247 -0.1632,0.0306 -0.34687,0.046 -0.55087,0.046 -0.60179,0 -1.0201,-0.18367 -1.2547,-0.55087 -0.2346,-0.3774 -0.3514,-0.93851 -0.3514,-1.6831 v -6.41046 h 2.98328 c 0.1938,0 0.3419,-0.11732 0.4439,-0.35192 0.102,-0.2448 0.15296,-0.64771 0.15296,-1.20871 0,-0.29579 -0.0154,-0.54582 -0.046,-0.74982 -0.0204,-0.204 -0.056,-0.36219 -0.10697,-0.47439 -0.051,-0.12239 -0.11735,-0.20893 -0.19895,-0.25994 -0.0714,-0.051 -0.15845,-0.0765 -0.26045,-0.0765 h -2.96778 v -3.04477 c 0,-0.102 -0.0308,-0.19384 -0.092,-0.27544 -0.0612,-0.0816 -0.16313,-0.14743 -0.30593,-0.19843 -0.1428,-0.0612 -0.34187,-0.10208 -0.59686,-0.12248 -0.24481,-0.0306 -0.55589,-0.046 -0.933287,-0.046 z m -60.06713,1.53014 c 0.979191,0 1.795118,0.16828 2.447911,0.50488 0.652796,0.3264 1.17303,0.79515 1.560629,1.40715 0.397796,0.60179 0.678093,1.3264 0.841293,2.17299 0.163198,0.84659 0.244946,1.78462 0.244946,2.81482 0,0.95879 -0.08653,1.86177 -0.259935,2.70836 -0.163197,0.84659 -0.448796,1.58608 -0.856795,2.21847 -0.407995,0.63239 -0.943625,1.13193 -1.606618,1.49913 -0.662996,0.3672 -1.489528,0.55087 -2.478918,0.55087 -0.989394,0 -1.810105,-0.15819 -2.462901,-0.47439 -0.652793,-0.3264 -1.17303,-0.79567 -1.560626,-1.40766 -0.387599,-0.612 -0.663109,-1.35148 -0.826307,-2.21847 -0.163198,-0.867 -0.244946,-1.8459 -0.244946,-2.93729 0,-0.918 0.08175,-1.79019 0.244946,-2.61638 0.173397,-0.83639 0.464301,-1.56578 0.872297,-2.18798 0.407998,-0.62219 0.94311,-1.11695 1.606105,-1.48415 0.662993,-0.3672 1.489525,-0.55035 2.478919,-0.55035 z m 35.755439,1.80506 c -1.081191,0 -2.05531,0.17837 -2.922302,0.53537 -0.856795,0.35699 -1.585669,0.87723 -2.187463,1.56062 -0.601795,0.6732 -1.06098,1.49974 -1.377178,2.47892 -0.316198,0.969 -0.47439,2.06043 -0.47439,3.27422 0,1.27499 0.148103,2.3866 0.443902,3.3352 0.305996,0.94859 0.764665,1.73373 1.376659,2.35593 0.611994,0.62219 1.372171,1.08668 2.279965,1.39268 0.917993,0.306 1.983946,0.45888 3.197738,0.45888 0.673193,0 1.305446,-0.0462 1.897041,-0.13797 0.591596,-0.0816 1.117135,-0.17823 1.576131,-0.29042 0.458997,-0.1224 0.835917,-0.24502 1.131713,-0.36742 0.295799,-0.1224 0.474687,-0.21903 0.535885,-0.29043 0.0714,-0.0714 0.12715,-0.14305 0.167949,-0.21445 0.0408,-0.0816 0.07158,-0.17822 0.09199,-0.29042 0.0204,-0.1122 0.03579,-0.24491 0.04599,-0.39791 0.01021,-0.1632 0.01498,-0.35696 0.01498,-0.58136 0,-0.255 -0.01008,-0.46416 -0.03049,-0.62736 -0.01021,-0.1734 -0.03568,-0.30611 -0.07648,-0.3979 -0.0408,-0.0918 -0.09176,-0.15285 -0.152963,-0.18345 -0.0612,-0.0408 -0.137644,-0.061 -0.229441,-0.061 -0.153001,0 -0.352066,0.051 -0.596863,0.15296 -0.244798,0.0918 -0.555882,0.19852 -0.933278,0.32091 -0.367197,0.1122 -0.805686,0.21943 -1.315681,0.32143 -0.509997,0.0918 -1.101375,0.13797 -1.774568,0.13797 -0.662996,0 -1.234197,-0.087 -1.713593,-0.26044 -0.469196,-0.1734 -0.85672,-0.42344 -1.162719,-0.74983 -0.295796,-0.3366 -0.515559,-0.739 -0.658357,-1.20819 -0.132599,-0.47941 -0.198438,-1.01025 -0.198438,-1.59164 h 8.307504 c 0.367197,0 0.652796,-0.11201 0.856795,-0.33641 0.214199,-0.2244 0.321426,-0.57105 0.321426,-1.04025 v -0.61237 c 0,-0.95879 -0.122621,-1.84585 -0.367419,-2.66185 -0.244797,-0.81599 -0.62702,-1.5199 -1.147217,-2.1115 -0.520195,-0.60179 -1.188535,-1.07107 -2.004528,-1.40766 -0.805794,-0.3366 -1.779911,-0.50488 -2.922302,-0.50488 z m 14.443046,0 c -0.856792,0 -1.631844,0.10722 -2.325439,0.32143 -0.683395,0.21419 -1.264684,0.51518 -1.74408,0.90278 -0.479396,0.3876 -0.846744,0.85688 -1.101741,1.40767 -0.254998,0.54059 -0.382405,1.13728 -0.382405,1.79007 0,0.6426 0.09184,1.1931 0.275434,1.65209 0.193799,0.45901 0.443828,0.85184 0.749826,1.17823 0.316196,0.3264 0.668153,0.6019 1.055749,0.82631 0.397796,0.22439 0.800714,0.42294 1.208712,0.59634 0.418197,0.1734 0.821116,0.33159 1.208712,0.47439 0.397795,0.1428 0.749233,0.29569 1.055232,0.45889 0.316198,0.1632 0.566227,0.35696 0.749824,0.58136 0.193799,0.2142 0.290938,0.47432 0.290938,0.78031 0,0.2652 -0.05096,0.49983 -0.152961,0.70383 -0.101999,0.204 -0.255404,0.37228 -0.459404,0.50488 -0.193796,0.1326 -0.427918,0.23504 -0.703315,0.30644 -0.2652,0.0714 -0.571495,0.10697 -0.918292,0.10697 -0.550794,0 -1.045549,-0.0663 -1.484146,-0.19895 -0.428397,-0.1326 -0.805833,-0.2754 -1.132231,-0.4284 -0.326398,-0.15299 -0.60139,-0.29049 -0.825789,-0.41289 -0.214198,-0.1326 -0.377695,-0.19896 -0.489892,-0.19896 -0.0918,0 -0.168243,0.0202 -0.229444,0.061 -0.0612,0.0306 -0.112162,0.10226 -0.152963,0.21446 -0.0408,0.102 -0.07158,0.2448 -0.09198,0.4284 -0.0204,0.1734 -0.03049,0.40751 -0.03049,0.70331 0,0.4488 0.03078,0.79066 0.09198,1.02526 0.0612,0.2244 0.147733,0.39268 0.259932,0.50488 0.112199,0.10199 0.290571,0.21453 0.535368,0.33693 0.244798,0.1224 0.551093,0.2445 0.91829,0.3669 0.367196,0.11221 0.780206,0.20404 1.239202,0.27544 0.469196,0.0816 0.958647,0.12247 1.468644,0.12247 0.846593,0 1.632252,-0.10192 2.356445,-0.30592 0.724194,-0.1938 1.351143,-0.48949 1.881537,-0.88728 0.530397,-0.39781 0.93862,-0.89256 1.224217,-1.48415 0.295796,-0.5916 0.443383,-1.27533 0.443383,-2.05052 0,-0.6222 -0.09662,-1.15732 -0.290422,-1.60611 -0.193797,-0.459 -0.448615,-0.85183 -0.76481,-1.17822 -0.316198,-0.3264 -0.678244,-0.60191 -1.086239,-0.82631 -0.397796,-0.22439 -0.806019,-0.41816 -1.224214,-0.58136 -0.407998,-0.1734 -0.816218,-0.33159 -1.224217,-0.47439 -0.397795,-0.1428 -0.754538,-0.29569 -1.070734,-0.45888 -0.316198,-0.1632 -0.571013,-0.35218 -0.764812,-0.56638 -0.193797,-0.2142 -0.290939,-0.4791 -0.290939,-0.7953 0,-0.204 0.04088,-0.39297 0.122473,-0.56637 0.0816,-0.1836 0.203705,-0.34128 0.366903,-0.47387 0.1632,-0.1326 0.372354,-0.23504 0.627354,-0.30644 0.254997,-0.0714 0.55599,-0.10697 0.902787,-0.10697 0.489596,0 0.923298,0.0563 1.300694,0.16846 0.387596,0.102 0.72416,0.21402 1.009759,0.33641 0.295796,0.1224 0.540522,0.23972 0.734322,0.35192 0.193799,0.102 0.336597,0.15296 0.428397,0.15296 0.0816,0 0.152742,-0.0154 0.21394,-0.046 0.0612,-0.0408 0.107376,-0.11194 0.137977,-0.21394 0.0408,-0.102 0.06628,-0.2395 0.07648,-0.41289 0.0204,-0.1734 0.03049,-0.39795 0.03049,-0.67335 0,-0.2346 -0.01008,-0.42837 -0.03049,-0.58136 -0.01019,-0.1632 -0.02558,-0.29591 -0.04599,-0.39791 -0.0204,-0.1122 -0.05118,-0.20403 -0.09198,-0.27543 -0.0408,-0.0816 -0.111943,-0.15805 -0.213942,-0.22945 -0.0918,-0.0816 -0.249992,-0.17344 -0.47439,-0.27543 -0.224399,-0.1122 -0.499909,-0.21412 -0.826305,-0.30592 -0.326398,-0.0918 -0.693229,-0.16825 -1.101225,-0.22945 -0.397798,-0.0612 -0.811321,-0.092 -1.239718,-0.092 z m -35.602479,0.26045 c -0.367197,0 -0.678278,0.0149 -0.933275,0.0455 -0.244798,0.0204 -0.443865,0.0565 -0.596863,0.10749 -0.142798,0.051 -0.244724,0.11684 -0.305925,0.19844 -0.051,0.0714 -0.07648,0.15845 -0.07648,0.26045 v 8.35349 c 0,1.04039 0.08175,1.91258 0.244946,2.61638 0.173397,0.69359 0.453694,1.30567 0.841293,1.83606 0.397796,0.53039 0.91273,0.94871 1.545124,1.25471 0.642594,0.306 1.433039,0.45888 2.371431,0.45888 0.836393,0 1.64223,-0.20385 2.417424,-0.61185 0.785395,-0.40799 1.55566,-1.02007 2.310453,-1.83606 v 1.57562 c 0,0.102 0.02548,0.19383 0.07648,0.27543 0.051,0.0714 0.137533,0.13297 0.259934,0.18397 0.122396,0.051 0.285893,0.0866 0.489892,0.10697 0.214199,0.0306 0.489709,0.046 0.826304,0.046 0.316199,0 0.576318,-0.0154 0.780315,-0.046 0.214199,-0.0204 0.382482,-0.056 0.50488,-0.10697 0.132599,-0.051 0.224436,-0.11257 0.275434,-0.18397 0.051,-0.0816 0.07648,-0.17343 0.07648,-0.27543 v -13.64723 c 0,-0.102 -0.03078,-0.18906 -0.09198,-0.26045 -0.0612,-0.0816 -0.163126,-0.14744 -0.305924,-0.19844 -0.142801,-0.051 -0.336563,-0.0871 -0.581361,-0.10749 -0.244798,-0.0306 -0.555879,-0.0455 -0.933275,-0.0455 -0.377397,0 -0.688478,0.0149 -0.933276,0.0455 -0.2448,0.0204 -0.443865,0.0565 -0.596863,0.10749 -0.142801,0.051 -0.244726,0.11684 -0.305924,0.19844 -0.051,0.0714 -0.07648,0.15845 -0.07648,0.26045 v 9.07283 c -0.560994,0.68339 -1.091322,1.20363 -1.591117,1.56063 -0.489596,0.35699 -0.979564,0.53536 -1.46916,0.53536 -0.387596,0 -0.728946,-0.0717 -1.024745,-0.21445 -0.285596,-0.15301 -0.525536,-0.36164 -0.719335,-0.62684 -0.1836,-0.2754 -0.321096,-0.60187 -0.412896,-0.97927 -0.0918,-0.3774 -0.137975,-0.92311 -0.137975,-1.63711 v -7.71115 c 0,-0.102 -0.03027,-0.18906 -0.09147,-0.26045 -0.0612,-0.0816 -0.168429,-0.14744 -0.321429,-0.19844 -0.142799,-0.051 -0.336561,-0.0871 -0.581359,-0.10749 -0.244798,-0.0306 -0.555881,-0.0455 -0.933278,-0.0455 z m 21.067967,2.4629 c 0.968991,0 1.68299,0.31108 2.141987,0.93327 0.469196,0.612 0.688441,1.4587 0.657841,2.5399 h -5.752621 c 0.0204,-0.4794 0.09154,-0.92797 0.21394,-1.34617 0.132601,-0.4284 0.316275,-0.79574 0.55087,-1.10174 0.244801,-0.31621 0.545791,-0.56624 0.902788,-0.74983 0.367196,-0.1836 0.795596,-0.27543 1.285195,-0.27543 z"
                 style="font-style:normal;font-variant:normal;font-weight:bold;font-stretch:normal;font-size:31.33415031px;line-height:0.80000001;font-family:Calibri;-inkscape-font-specification:'Calibri, Bold';font-variant-ligatures:normal;font-variant-caps:normal;font-variant-numeric:normal;font-feature-settings:normal;text-align:center;letter-spacing:0px;word-spacing:0px;writing-mode:lr-tb;text-anchor:middle;opacity:1;fill:#ad023f;fill-opacity:1;stroke:none;stroke-width:0.38211492" />
              <path
                 inkscape:connector-curvature="0"
                 id="path1017"
                 transform="matrix(0.26458333,0,0,0.26458333,0,138.24998)"
                 d="m 250.71484,144.76758 c -3.27682,0 -5.51195,0.57982 -6.70703,1.73633 -1.15652,1.11798 -1.73437,3.14044 -1.73437,6.07031 0,2.81421 0.5578,4.76236 1.67578,5.8418 1.15653,1.0794 3.37357,1.61914 6.65039,1.61914 3.23827,0 5.45531,-0.55978 6.65039,-1.67774 1.19508,-1.11798 1.79297,-3.1424 1.79297,-6.07226 0,-2.81421 -0.57785,-4.76041 -1.73438,-5.83985 -1.15652,-1.11796 -3.35547,-1.67773 -6.59375,-1.67773 z m -68.58203,3.70117 c -1.27218,0 -2.35161,0.38525 -3.23828,1.15625 -0.84812,0.73247 -1.27148,1.94828 -1.27148,3.64453 v 67.94531 c 0,0.38552 0.11635,0.73261 0.34765,1.04102 0.23131,0.30841 0.63463,0.5592 1.21289,0.75195 0.57827,0.19276 1.35068,0.34724 2.31446,0.46289 1.00232,0.11566 2.23624,0.17188 3.70117,0.17188 1.50348,0 2.73545,-0.0562 3.69922,-0.17188 0.96377,-0.11565 1.73619,-0.27013 2.31445,-0.46289 0.57826,-0.19275 0.98158,-0.44354 1.21289,-0.75195 0.26986,-0.30841 0.40625,-0.6555 0.40625,-1.04102 v -28.50781 h 4.74024 c 1.61913,0 3.04566,0.24884 4.27929,0.75 1.23363,0.50117 2.31306,1.25353 3.23828,2.25586 0.96378,0.96375 1.8325,2.17763 2.60352,3.64258 0.77102,1.46494 1.56152,3.14227 2.37109,5.03125 l 6.70703,16.71289 c 0.15421,0.46261 0.34682,0.86593 0.57813,1.21289 0.2313,0.30841 0.61654,0.57924 1.15625,0.81055 0.57826,0.19275 1.35068,0.32719 2.31445,0.40429 0.96377,0.0771 2.25391,0.11524 3.87305,0.11524 1.92754,0 3.45038,-0.0381 4.56836,-0.11524 1.11798,-0.0771 1.96666,-0.21154 2.54492,-0.40429 0.57826,-0.19276 0.94345,-0.4235 1.09766,-0.69336 0.1542,-0.30841 0.23242,-0.67555 0.23242,-1.09961 0,-0.38551 -0.0963,-0.9052 -0.28906,-1.56055 -0.19276,-0.69392 -0.57799,-1.77334 -1.15625,-3.23828 l -6.30469,-14.74609 c -0.73247,-1.77333 -1.48289,-3.35435 -2.25391,-4.74219 -0.77102,-1.42637 -1.59966,-2.67838 -2.48633,-3.75781 -0.84811,-1.11796 -1.77306,-2.06296 -2.77539,-2.83399 -0.96377,-0.77102 -2.00507,-1.42708 -3.12304,-1.96679 2.31305,-0.73245 4.3756,-1.69554 6.1875,-2.89063 1.81189,-1.19509 3.33473,-2.60158 4.56836,-4.2207 1.23362,-1.61915 2.15857,-3.45096 2.77539,-5.49414 0.65536,-2.08174 0.98242,-4.37504 0.98242,-6.88086 0,-2.96842 -0.44341,-5.59074 -1.33008,-7.86524 -0.88667,-2.31304 -2.17876,-4.29737 -3.875,-5.95508 -1.65769,-1.69622 -3.7002,-3.06654 -6.12891,-4.10742 -2.39015,-1.04085 -5.08873,-1.7732 -8.0957,-2.19726 -1.04087,-0.11566 -2.19657,-0.21196 -3.46875,-0.28907 -1.27218,-0.0771 -2.89133,-0.11523 -4.85742,-0.11523 z m 10.69922,11.62305 h 6.82227 c 1.73479,0 3.08505,0.0582 4.04882,0.17382 1.00233,0.11566 1.88915,0.27014 2.66016,0.4629 2.54436,0.69392 4.37421,1.88775 5.49219,3.58398 1.11797,1.69625 1.67773,3.77884 1.67773,6.24609 0,1.61915 -0.26888,3.08382 -0.80859,4.39453 -0.53971,1.31075 -1.35026,2.44836 -2.42969,3.41211 -1.07942,0.92523 -2.42774,1.65755 -4.04687,2.19727 -1.61914,0.50117 -3.50912,0.75195 -5.66797,0.75195 h -7.74805 z m 110.04297,6.36132 c -3.19972,0 -6.28354,0.77048 -9.25195,2.3125 -2.92987,1.54205 -5.82107,3.85539 -8.67383,6.93946 V 169.75 c 0,-0.38551 -0.0963,-0.71452 -0.28906,-0.98438 -0.19276,-0.30838 -0.52177,-0.55919 -0.98438,-0.75195 -0.42406,-0.19275 -1.04004,-0.32719 -1.84961,-0.40429 -0.80957,-0.11566 -1.83082,-0.17383 -3.06445,-0.17383 -1.19508,0 -2.19824,0.0582 -3.00781,0.17383 -0.77102,0.0771 -1.40704,0.21154 -1.90821,0.40429 -0.50115,0.19276 -0.84826,0.44357 -1.04101,0.75195 -0.19276,0.26986 -0.28907,0.59887 -0.28907,0.98438 v 51.58008 c 10e-6,0.38551 0.11635,0.7326 0.34766,1.04101 0.23131,0.26986 0.61654,0.50061 1.15625,0.69336 0.57826,0.19276 1.33064,0.32915 2.25586,0.40625 0.92522,0.11566 2.10096,0.17188 3.52734,0.17188 1.42639,0 2.60213,-0.0562 3.52735,-0.17188 0.92522,-0.0771 1.65755,-0.21349 2.19726,-0.40625 0.57826,-0.19275 0.98354,-0.4235 1.21485,-0.69336 0.2313,-0.30841 0.3457,-0.6555 0.3457,-1.04101 v -34.29102 c 2.0432,-2.58293 4.00945,-4.54917 5.89844,-5.89844 1.88899,-1.34929 3.75893,-2.02343 5.60937,-2.02343 1.46494,0 2.73699,0.28892 3.81641,0.86719 1.11798,0.53971 2.02484,1.33021 2.71875,2.37109 0.69392,1.0023 1.21359,2.21618 1.56055,3.64258 0.38551,1.42637 0.57812,3.39261 0.57812,5.89843 v 29.4336 c 0,0.38551 0.11635,0.7326 0.34766,1.04101 0.2313,0.26986 0.61653,0.50061 1.15625,0.69336 0.53971,0.19276 1.27204,0.32915 2.19726,0.40625 0.96378,0.11566 2.15956,0.17188 3.58594,0.17188 1.38783,0 2.54353,-0.0562 3.46875,-0.17188 0.96377,-0.0771 1.71615,-0.21349 2.25586,-0.40625 0.53971,-0.19275 0.92494,-0.4235 1.15625,-0.69336 0.23131,-0.30841 0.3457,-0.6555 0.3457,-1.04101 v -31.86133 c 0,-3.73944 -0.32705,-6.9396 -0.98242,-9.59961 -0.65536,-2.66001 -1.7348,-4.97337 -3.23828,-6.93945 -1.46493,-2.00466 -3.41114,-3.58568 -5.83984,-4.74219 -2.39016,-1.15654 -5.33953,-1.73438 -8.84766,-1.73438 z m -52.2168,0.98243 c -1.42638,0 -2.60212,0.0582 -3.52734,0.17383 -0.92522,0.11565 -1.6776,0.29017 -2.25586,0.52148 -0.53971,0.19276 -0.92494,0.44162 -1.15625,0.75 -0.23131,0.26986 -0.34766,0.59886 -0.34766,0.98437 v 51.46485 c 0,0.38551 0.11635,0.7326 0.34766,1.04101 0.2313,0.26986 0.61654,0.50061 1.15625,0.69336 0.57826,0.19276 1.33064,0.32915 2.25586,0.40625 0.92522,0.11566 2.10096,0.17188 3.52734,0.17188 1.42639,0 2.60213,-0.0562 3.52735,-0.17188 0.92522,-0.0771 1.65755,-0.21349 2.19726,-0.40625 0.57826,-0.19275 0.98354,-0.4235 1.21485,-0.69336 0.2313,-0.30841 0.3457,-0.6555 0.3457,-1.04101 v -51.46485 c 0,-0.38551 -0.1144,-0.71451 -0.3457,-0.98437 -0.23131,-0.30838 -0.63658,-0.55724 -1.21485,-0.75 -0.53971,-0.23131 -1.27204,-0.40583 -2.19726,-0.52148 -0.92522,-0.11566 -2.10096,-0.17383 -3.52735,-0.17383 z m -106.45898,74.44531 c -5.93684,0 -11.15947,0.90684 -15.66992,2.71875 -4.4719,1.81188 -8.23183,4.41416 -11.27735,7.80664 -3.04551,3.35393 -5.33882,7.45901 -6.88086,12.31641 -1.54203,4.81887 -2.3125,10.25415 -2.3125,16.30664 0,6.6693 0.71229,12.43361 2.13868,17.29101 1.46493,4.81887 3.64384,8.78949 6.53515,11.91211 2.89132,3.12262 6.4948,5.43598 10.8125,6.93946 4.35625,1.46494 9.4464,2.19726 15.26758,2.19726 3.08407,0 5.87896,-0.30896 8.38477,-0.92578 2.54435,-0.57827 4.70322,-1.27246 6.47656,-2.08203 2.1203,2.42872 4.4136,4.56949 6.88086,6.41992 2.50581,1.88898 4.95359,3.46805 7.34375,4.74023 2.39015,1.31074 4.60719,2.31392 6.65039,3.00782 2.08174,0.69392 3.75907,1.04101 5.03125,1.04101 0.30841,0 0.59733,-0.0763 0.86719,-0.23047 0.26985,-0.11565 0.52064,-0.40652 0.75195,-0.86914 0.2313,-0.46259 0.40388,-1.11671 0.51953,-1.96484 0.1542,-0.84813 0.23047,-1.9657 0.23047,-3.35352 0,-1.7348 -0.0963,-3.10509 -0.28906,-4.10742 -0.19276,-0.96375 -0.49977,-1.65601 -0.92383,-2.08008 -0.42406,-0.38551 -1.02195,-0.69447 -1.79297,-0.92578 -0.73247,-0.26986 -1.73563,-0.67512 -3.00781,-1.21484 -1.23363,-0.53972 -2.77456,-1.34833 -4.625,-2.42774 -1.85044,-1.07943 -3.97118,-2.66044 -6.36133,-4.74218 1.58058,-1.5806 2.98707,-3.41241 4.2207,-5.49414 1.23363,-2.08174 2.27493,-4.37504 3.12305,-6.88086 0.84812,-2.5058 1.48414,-5.22444 1.9082,-8.1543 0.46261,-2.96842 0.69336,-6.12849 0.69336,-9.48242 0,-6.47655 -0.77046,-12.08638 -2.3125,-16.82813 -1.50348,-4.74177 -3.73861,-8.65421 -6.70703,-11.73828 -2.92986,-3.12262 -6.55339,-5.43598 -10.87109,-6.93945 -4.27915,-1.5035 -9.21481,-2.25586 -14.80469,-2.25586 z m 226.50586,6.70898 c -1.38783,0 -2.56357,0.0582 -3.52735,0.17383 -0.92522,0.0771 -1.67759,0.23159 -2.25585,0.46289 -0.53971,0.19273 -0.92495,0.44159 -1.15626,0.75 -0.19275,0.30841 -0.28906,0.65551 -0.28906,1.04102 v 11.50781 h -6.1289 c -0.38551,0 -0.73261,0.0963 -1.04102,0.28906 -0.26985,0.19276 -0.5006,0.51984 -0.69336,0.98243 -0.19275,0.42406 -0.34724,1.02194 -0.46289,1.79296 -0.0771,0.77103 -0.11523,1.71603 -0.11523,2.83399 0,2.12031 0.19261,3.64313 0.57812,4.56836 0.38551,0.88665 0.94332,1.33008 1.67578,1.33008 h 6.1875 v 26.42578 c 0,3.16117 0.32706,5.89984 0.98242,8.21289 0.65537,2.31304 1.67858,4.2392 3.06641,5.78125 1.38783,1.50347 3.14142,2.62299 5.26172,3.35547 2.1203,0.73247 4.62627,1.09765 7.51758,1.09765 1.07943,0 2.1388,-0.0582 3.17969,-0.17383 1.0794,-0.11565 2.06254,-0.28822 2.94921,-0.51953 0.92523,-0.19275 1.71575,-0.4235 2.3711,-0.69336 0.69392,-0.30841 1.21358,-0.63741 1.56054,-0.98437 0.34697,-0.38551 0.6178,-1.02155 0.81055,-1.9082 0.23131,-0.92523 0.34766,-2.23542 0.34766,-3.93164 0,-1.07944 -0.0582,-1.96624 -0.17383,-2.66016 -0.0771,-0.69392 -0.17341,-1.23363 -0.28906,-1.61914 -0.11566,-0.42404 -0.29018,-0.6949 -0.52149,-0.81055 -0.19275,-0.1542 -0.40346,-0.23047 -0.63476,-0.23047 -0.26986,0 -0.57882,0.0763 -0.92578,0.23047 -0.30841,0.11563 -0.71371,0.27014 -1.21485,0.46289 -0.46261,0.15421 -1.00232,0.30869 -1.61914,0.46289 -0.61682,0.11566 -1.31101,0.17383 -2.08203,0.17383 -2.27449,0 -3.85551,-0.69421 -4.74219,-2.08203 -0.88665,-1.42639 -1.32812,-3.54712 -1.32812,-6.36133 v -24.22851 h 11.27539 c 0.73247,0 1.29222,-0.44343 1.67773,-1.33008 0.38551,-0.92523 0.57813,-2.44805 0.57813,-4.56836 0,-1.11796 -0.0582,-2.06296 -0.17383,-2.83399 -0.0771,-0.77102 -0.21154,-1.3689 -0.4043,-1.79296 -0.19275,-0.46259 -0.44354,-0.78967 -0.75195,-0.98243 -0.26986,-0.19275 -0.59886,-0.28906 -0.98438,-0.28906 h -11.21679 v -11.50781 c 0,-0.38551 -0.11635,-0.73261 -0.34766,-1.04102 -0.2313,-0.30838 -0.61654,-0.55724 -1.15625,-0.75 -0.53971,-0.2313 -1.29209,-0.38579 -2.25586,-0.46289 -0.92522,-0.11565 -2.10096,-0.17383 -3.52734,-0.17383 z m -227.02539,5.78321 c 3.70088,0 6.7847,0.63601 9.25195,1.9082 2.46726,1.23364 4.4335,3.00531 5.89844,5.31836 1.50348,2.27449 2.56287,5.01317 3.17969,8.21289 0.61681,3.19972 0.92578,6.74503 0.92578,10.63867 0,3.62379 -0.32706,7.03661 -0.98243,10.23633 -0.61681,3.19972 -1.69624,5.99462 -3.23828,8.38477 -1.54203,2.39014 -3.56646,4.27817 -6.07226,5.66601 -2.50581,1.38782 -5.62971,2.08203 -9.36914,2.08203 -3.73944,0 -6.84134,-0.5979 -9.3086,-1.79297 -2.46725,-1.23363 -4.4335,-3.00726 -5.89843,-5.32031 -1.46494,-2.31304 -2.50624,-5.10794 -3.12305,-8.38476 -0.61681,-3.27683 -0.92578,-6.97662 -0.92578,-11.10157 0,-3.46958 0.30897,-6.76605 0.92578,-9.88867 0.65536,-3.16117 1.75484,-5.91793 3.29687,-8.26953 1.54204,-2.3516 3.56451,-4.22153 6.07032,-5.60938 2.5058,-1.38784 5.6297,-2.08007 9.36914,-2.08007 z m 135.13867,6.82226 c -4.08639,0 -7.7681,0.67415 -11.04492,2.02344 -3.23828,1.34927 -5.99308,3.31553 -8.26758,5.89844 -2.2745,2.54438 -4.01,5.66828 -5.20508,9.36914 -1.19508,3.66234 -1.79297,7.78743 -1.79297,12.375 0,4.81885 0.55976,9.02023 1.67774,12.60547 1.15652,3.58523 2.89007,6.5527 5.20312,8.90429 2.31305,2.3516 5.18616,4.10714 8.61719,5.26368 3.46958,1.15653 7.49838,1.73437 12.08594,1.73437 2.54435,0 4.93397,-0.17452 7.16992,-0.52148 2.23595,-0.30841 4.22224,-0.6736 5.95703,-1.09766 1.73479,-0.46261 3.15937,-0.92606 4.27734,-1.38867 1.11798,-0.46259 1.79409,-0.8278 2.02539,-1.09766 0.26986,-0.26986 0.48057,-0.54069 0.63477,-0.81055 0.1542,-0.3084 0.27055,-0.67359 0.34766,-1.09765 0.0771,-0.42406 0.13527,-0.92564 0.17382,-1.50391 0.0386,-0.61679 0.0566,-1.34914 0.0566,-2.19726 0,-0.96378 -0.0381,-1.75428 -0.11524,-2.3711 -0.0386,-0.65537 -0.13486,-1.15697 -0.28906,-1.5039 -0.1542,-0.34696 -0.34682,-0.57771 -0.57813,-0.69336 -0.2313,-0.15421 -0.52023,-0.23047 -0.86718,-0.23047 -0.57827,0 -1.33064,0.19261 -2.25586,0.57812 -0.92522,0.34696 -2.10097,0.75031 -3.52735,1.21289 -1.38783,0.42407 -3.04511,0.82934 -4.97265,1.21485 -1.92755,0.34696 -4.16268,0.52148 -6.70703,0.52148 -2.50581,0 -4.66468,-0.329 -6.47657,-0.98437 -1.77334,-0.65537 -3.238,-1.60037 -4.39453,-2.83399 -1.11797,-1.27219 -1.94857,-2.79307 -2.48828,-4.5664 -0.50116,-1.81191 -0.75,-3.81824 -0.75,-6.01563 h 31.39844 c 1.38783,0 2.46726,-0.42336 3.23828,-1.27148 0.80957,-0.8481 1.21484,-2.15829 1.21484,-3.93164 v -2.31446 c 0,-3.62378 -0.46345,-6.97647 -1.38867,-10.06054 -0.92522,-3.08407 -2.36984,-5.7445 -4.33594,-7.98047 -1.96609,-2.2745 -4.4921,-4.04815 -7.57617,-5.32031 -3.04552,-1.27219 -6.72722,-1.90821 -11.04492,-1.90821 z m 54.58789,0 c -3.23827,0 -6.1676,0.40527 -8.78906,1.21485 -2.58291,0.80955 -4.77991,1.94716 -6.5918,3.41211 -1.81189,1.46494 -3.20029,3.23857 -4.16406,5.32031 -0.96377,2.04319 -1.44531,4.29837 -1.44531,6.76562 0,2.42873 0.3471,4.50937 1.04101,6.24414 0.73247,1.73481 1.67746,3.21952 2.83399,4.45313 1.19507,1.23364 2.5253,2.27492 3.99023,3.12305 1.50348,0.8481 3.02632,1.59853 4.56836,2.2539 1.58059,0.65537 3.10343,1.25325 4.56836,1.79297 1.50348,0.53972 2.83175,1.11758 3.98828,1.73438 1.19508,0.61681 2.14007,1.34914 2.83398,2.19726 0.73247,0.80958 1.09961,1.79271 1.09961,2.94922 0,1.00233 -0.19261,1.88913 -0.57812,2.66016 -0.38551,0.77099 -0.96531,1.40703 -1.73633,1.9082 -0.73246,0.50116 -1.61733,0.88834 -2.6582,1.1582 -1.00233,0.26986 -2.15998,0.4043 -3.47071,0.4043 -2.08174,0 -3.95168,-0.25079 -5.60937,-0.75195 -1.61914,-0.50117 -3.04567,-1.04088 -4.2793,-1.61914 -1.23363,-0.57825 -2.27297,-1.09794 -3.12109,-1.56055 -0.80957,-0.50117 -1.42751,-0.75195 -1.85156,-0.75195 -0.34696,0 -0.63588,0.0763 -0.86719,0.23046 -0.23131,0.11566 -0.42392,0.38649 -0.57813,0.81055 -0.1542,0.38551 -0.27055,0.92525 -0.34765,1.61914 -0.0771,0.65537 -0.11524,1.54022 -0.11524,2.65821 0,1.69622 0.11635,2.98832 0.34766,3.875 0.2313,0.84812 0.55836,1.48414 0.98242,1.9082 0.42406,0.38548 1.09822,0.81082 2.02344,1.27344 0.92522,0.46261 2.08287,0.9241 3.4707,1.38671 1.38783,0.42407 2.94881,0.77116 4.6836,1.04102 1.77334,0.30841 3.62323,0.46289 5.55078,0.46289 3.19972,0 6.16914,-0.38523 8.90625,-1.15625 2.73711,-0.73247 5.10668,-1.85004 7.11132,-3.35351 2.00465,-1.5035 3.54754,-3.37344 4.62696,-5.60938 1.11797,-2.23594 1.67578,-4.82014 1.67578,-7.75 0,-2.35162 -0.36519,-4.37409 -1.09766,-6.07031 -0.73246,-1.73481 -1.69555,-3.21951 -2.89062,-4.45313 -1.19508,-1.23364 -2.56344,-2.27492 -4.10547,-3.12304 -1.50348,-0.84811 -3.04637,-1.58045 -4.62695,-2.19727 -1.54204,-0.65537 -3.08492,-1.25325 -4.62696,-1.79297 -1.50348,-0.53972 -2.8518,-1.11758 -4.04687,-1.73437 -1.19508,-0.61682 -2.15816,-1.33105 -2.89063,-2.14063 -0.73246,-0.80957 -1.09961,-1.8108 -1.09961,-3.00586 0,-0.77102 0.15449,-1.48525 0.46289,-2.14062 0.30841,-0.69392 0.76991,-1.28988 1.38672,-1.79102 0.61682,-0.50116 1.40732,-0.88834 2.3711,-1.1582 0.96377,-0.26986 2.10138,-0.4043 3.41211,-0.4043 1.85044,0 3.48963,0.21266 4.91601,0.63672 1.46493,0.38551 2.73698,0.8089 3.81641,1.27148 1.11797,0.46262 2.04292,0.90602 2.77539,1.33008 0.73247,0.38551 1.27218,0.57813 1.61914,0.57813 0.30841,0 0.57729,-0.0582 0.80859,-0.17383 0.23131,-0.15421 0.40583,-0.42308 0.52149,-0.80859 0.1542,-0.38552 0.25051,-0.90521 0.28906,-1.56055 0.0771,-0.65537 0.11523,-1.50404 0.11523,-2.54492 0,-0.88668 -0.0381,-1.61903 -0.11523,-2.19727 -0.0385,-0.61682 -0.0967,-1.11839 -0.17383,-1.50391 -0.0771,-0.42406 -0.19345,-0.77115 -0.34765,-1.04101 -0.15421,-0.30841 -0.42309,-0.59733 -0.8086,-0.86719 -0.34696,-0.30841 -0.94485,-0.65553 -1.79297,-1.04101 -0.84812,-0.42407 -1.88942,-0.80929 -3.12304,-1.15625 -1.23363,-0.34696 -2.62008,-0.63588 -4.16211,-0.86719 -1.50349,-0.23131 -3.06641,-0.34766 -4.68555,-0.34766 z m -134.56055,0.98438 c -1.38783,0 -2.56357,0.0562 -3.52734,0.17187 -0.92522,0.0771 -1.6776,0.2135 -2.25586,0.40625 -0.53971,0.19276 -0.92494,0.44159 -1.15625,0.75 -0.19276,0.26984 -0.28906,0.59887 -0.28906,0.98438 v 31.57226 c 0,3.93217 0.30896,7.22864 0.92578,9.88867 0.65536,2.62146 1.71475,4.93482 3.17969,6.93946 1.50348,2.00463 3.44969,3.58565 5.83984,4.74219 2.4287,1.15653 5.41621,1.73437 8.96289,1.73437 3.16117,0 6.20685,-0.77045 9.13672,-2.3125 2.96842,-1.54202 5.87966,-3.85538 8.73242,-6.93945 v 5.95508 c 0,0.38551 0.0963,0.7326 0.28906,1.04101 0.19276,0.26986 0.51981,0.50256 0.98243,0.69531 0.4626,0.19276 1.08054,0.3272 1.85156,0.4043 0.80957,0.11565 1.85087,0.17383 3.12304,0.17383 1.19508,0 2.17821,-0.0582 2.94922,-0.17383 0.80957,-0.0771 1.4456,-0.21154 1.90821,-0.4043 0.50116,-0.19275 0.84826,-0.42545 1.04101,-0.69531 0.19276,-0.30841 0.28906,-0.6555 0.28906,-1.04101 v -51.58008 c 0,-0.38551 -0.11634,-0.71454 -0.34765,-0.98438 -0.23131,-0.30841 -0.61654,-0.55724 -1.15625,-0.75 -0.53972,-0.19275 -1.27205,-0.32915 -2.19727,-0.40625 -0.92522,-0.11565 -2.10096,-0.17187 -3.52734,-0.17187 -1.42638,0 -2.60212,0.0562 -3.52734,0.17187 -0.92523,0.0771 -1.6776,0.2135 -2.25586,0.40625 -0.53972,0.19276 -0.92495,0.44159 -1.15625,0.75 -0.19276,0.26984 -0.28907,0.59887 -0.28907,0.98438 v 34.29101 c -2.12029,2.58291 -4.12468,4.54915 -6.01367,5.89844 -1.85044,1.34927 -3.70229,2.02344 -5.55273,2.02344 -1.46493,0 -2.75507,-0.27086 -3.87305,-0.81055 -1.07942,-0.57827 -1.98628,-1.36681 -2.71875,-2.36914 -0.69392,-1.04088 -1.21359,-2.2748 -1.56055,-3.70117 -0.34695,-1.42639 -0.52148,-3.48894 -0.52148,-6.1875 v -29.14453 c 0,-0.38551 -0.1144,-0.71454 -0.3457,-0.98438 -0.23131,-0.30841 -0.63658,-0.55724 -1.21485,-0.75 -0.53971,-0.19275 -1.27204,-0.32915 -2.19726,-0.40625 -0.92522,-0.11565 -2.10097,-0.17187 -3.52735,-0.17187 z m 79.62696,9.30859 c 3.66233,0 6.36091,1.17575 8.0957,3.52734 1.77334,2.31305 2.60198,5.51321 2.48633,9.59961 H 267.3125 c 0.0771,-1.81188 0.34598,-3.50729 0.80859,-5.08789 0.50117,-1.61912 1.19537,-3.00752 2.08203,-4.16406 0.92523,-1.19509 2.06283,-2.14009 3.41211,-2.83398 1.38783,-0.69392 3.00698,-1.04102 4.85743,-1.04102 z"
                 style="font-style:normal;font-variant:normal;font-weight:bold;font-stretch:normal;font-size:31.33415031px;line-height:0.80000001;font-family:Calibri;-inkscape-font-specification:'Calibri, Bold';font-variant-ligatures:normal;font-variant-caps:normal;font-variant-numeric:normal;font-feature-settings:normal;text-align:center;writing-mode:lr-tb;text-anchor:middle;opacity:1;fill:#c01653;fill-opacity:1;stroke-width:1.44421387" />
              <path
                 inkscape:connector-curvature="0"
                 id="path1052-2"
                 d="m 63.627124,207.96975 0.06984,1.25707 1.517666,0.33048 z"
                 style="font-style:normal;font-variant:normal;font-weight:bold;font-stretch:normal;font-size:31.33415031px;line-height:0.80000001;font-family:Calibri;-inkscape-font-specification:'Calibri, Bold';font-variant-ligatures:normal;font-variant-caps:normal;font-variant-numeric:normal;font-feature-settings:normal;text-align:center;letter-spacing:0px;word-spacing:0px;writing-mode:lr-tb;text-anchor:middle;opacity:1;fill:#ad023f;fill-opacity:1;stroke:none;stroke-width:0.26458332px;stroke-linecap:butt;stroke-linejoin:miter;stroke-opacity:1" />
              <path
                 sodipodi:nodetypes="cccc"
                 inkscape:connector-curvature="0"
                 id="path1096-7"
                 d="m 59.147138,197.4699 -0.0069,1.23188 -1.564045,-1.55079 z"
                 style="font-style:normal;font-variant:normal;font-weight:bold;font-stretch:normal;font-size:31.33415031px;line-height:0.80000001;font-family:Calibri;-inkscape-font-specification:'Calibri, Bold';font-variant-ligatures:normal;font-variant-caps:normal;font-variant-numeric:normal;font-feature-settings:normal;text-align:center;letter-spacing:0px;word-spacing:0px;writing-mode:lr-tb;text-anchor:middle;opacity:1;fill:#ad023f;fill-opacity:1;stroke:none;stroke-width:0.26458332px;stroke-linecap:butt;stroke-linejoin:miter;stroke-opacity:1" />
              <path
                 sodipodi:nodetypes="cccc"
                 inkscape:connector-curvature="0"
                 id="path1115-8-1-2"
                 d="m 69.743549,184.52055 -1.520174,-0.0105 -0.06728,-1.57704 z"
                 style="font-style:normal;font-variant:normal;font-weight:bold;font-stretch:normal;font-size:31.33415031px;line-height:0.80000001;font-family:Calibri;-inkscape-font-specification:'Calibri, Bold';font-variant-ligatures:normal;font-variant-caps:normal;font-variant-numeric:normal;font-feature-settings:normal;text-align:center;letter-spacing:0px;word-spacing:0px;writing-mode:lr-tb;text-anchor:middle;opacity:1;fill:#ad023f;fill-opacity:1;stroke:none;stroke-width:0.26458332px;stroke-linecap:butt;stroke-linejoin:miter;stroke-opacity:1" />
            </g>
          </g>
        </g>
      </g>
    </g>
    <g
       aria-label="NENE"
       style="font-style:normal;font-weight:normal;font-size:10.58333302px;line-height:1.25;font-family:sans-serif;letter-spacing:0px;word-spacing:0px;fill:#000000;fill-opacity:1;stroke:none;stroke-width:0.26458332"
       id="text37"
       transform="translate(2.6458333,6.0476191)" />
  </g>
</svg>
